<?xml version="1.0" encoding="utf-8"?>
<!-- Generator: Adobe Illustrator 25.4.1, SVG Export Plug-In . SVG Version: 6.00 Build 0)  -->
<svg version="1.1" id="Layer_1" xmlns="http://www.w3.org/2000/svg" xmlns:xlink="http://www.w3.org/1999/xlink" x="0px" y="0px"
	 viewBox="0 0 1800 1800" style="enable-background:new 0 0 1800 1800;" xml:space="preserve">
<style type="text/css">
	.st0{fill:#38BEEF;}
	.st1{fill:#F1F1F1;}
</style>
<rect x="-0.37" class="st0" width="1800.95" height="1800.95"/>
<g>
	<g>
		<g>
			<g>
				<path class="st1" d="M635.76,853.31c0,7.65,5.06,13.86,15.19,18.63c10.13,4.78,22.45,8.99,36.98,12.62
					c14.52,3.64,29.04,8.22,43.58,13.76c14.52,5.55,26.85,14.82,36.98,27.81c10.12,13,15.19,29.24,15.19,48.73
					c0,29.44-11,52.08-32.97,67.94c-21.98,15.86-49.4,23.8-82.27,23.8c-58.87,0-99-22.74-120.4-68.23l64.22-36.12
					c8.4,24.85,27.13,37.27,56.19,37.27c26.37,0,39.56-8.22,39.56-24.65c0-7.64-5.07-13.85-15.19-18.63
					c-10.13-4.78-22.46-9.08-36.98-12.9c-14.53-3.82-29.05-8.6-43.57-14.33c-14.53-5.73-26.86-14.81-36.98-27.23
					c-10.13-12.41-15.19-27.99-15.19-46.73c0-28.28,10.41-50.54,31.24-66.79c20.83-16.24,46.73-24.36,77.69-24.36
					c23.31,0,44.52,5.26,63.64,15.76c19.11,10.52,34.2,25.51,45.29,45.01l-63.07,34.4c-9.17-19.49-24.46-29.24-45.87-29.24
					c-9.56,0-17.49,2.1-23.79,6.31C638.92,840.33,635.76,846.06,635.76,853.31z"/>
				<path class="st1" d="M947.1,889h-60.77v73.25c0,9.94,2.48,17.2,7.45,21.79c4.96,4.59,12.22,7.3,21.79,7.74
					c14.72,0.68,14.86,0.68,31.53,0.53v66.27c-52.93,3.56-82.66,0.95-103.48-14.33c-20.84-15.28-31.25-42.62-31.25-81.99V842.99l0,0
					V771.9l0,0v-80.27h73.96v126.33h60.77V889z"/>
				<path class="st1" d="M1233.1,817.96v-6.05c0-40.51,11.27-71.28,33.82-92.31c22.55-21.02,56.19-30.19,100.91-27.52v71.09
					c-40.52-3.05-60.77,13.19-60.77,48.73l-0.06,6.05h60.83V889h-60.83v169.57h-73.9V889.06V817.96z"/>
				<g>
					<path class="st1" d="M248.79,771.9h-73.96l0,257.27c0,35.54-20.25,51.79-60.77,48.73v71.09c44.72,2.67,78.36-6.51,100.91-27.52
						c22.55-21.02,33.82-51.8,33.82-92.31L248.79,771.9z"/>
				</g>
				<path class="st1" d="M211.44,731.77c11.11,0,20.61-3.95,28.52-11.87c7.91-7.9,11.86-17.24,11.86-28.01
					c0-10.77-3.96-20.19-11.86-28.27c-7.91-8.08-17.41-12.12-28.52-12.12c-10.77,0-20.11,4.04-28.01,12.12
					c-7.91,8.08-11.87,17.5-11.87,28.27c0,10.77,3.95,20.11,11.87,28.01C191.33,727.81,200.67,731.77,211.44,731.77z"/>
				<g>
					<path class="st1" d="M1161.41,848.82c11.11,0,20.61-3.95,28.52-11.87c7.91-7.9,11.86-17.24,11.86-28.01
						c0-10.77-3.96-20.19-11.86-28.27c-7.91-8.08-17.41-12.12-28.52-12.12c-10.77,0-20.11,4.04-28.01,12.12
						c-7.91,8.08-11.87,17.5-11.87,28.27c0,10.77,3.95,20.11,11.87,28.01C1141.3,844.87,1150.63,848.82,1161.41,848.82z"/>
					<path class="st1" d="M1124.66,964.52V889h73.9v77.08c0,18.63-4.41,37.14-13.75,53.26c-13.37,23.07-39.45,47.5-89.93,47.5
						c-51.01,0-79.23-21.22-94.75-42.78c-12.42-17.26-18.49-38.28-18.49-59.54l0-272.92h73.96l0.02,272.93
						c-0.35,19.21,15.39,35.18,34.53,35.14C1109.23,999.61,1125.01,983.67,1124.66,964.52z"/>
				</g>
				<path class="st1" d="M525.62,771.9l0,177.13c-2.08,64.96-55.67,117.22-120.1,117.79c-65.22,0.57-120.12-52.03-122.22-117.79
					l0.03-177.13h73.96l-0.03,171.09c0,19.12,5.16,33.74,15.48,43.86c17.45,17.01,46,17.01,63.45,0
					c10.32-10.12,15.48-24.74,15.48-43.86V771.93c0.01-0.01,0.02-0.02,0.03-0.03L525.62,771.9z"/>
				<path class="st1" d="M1686.16,919.5c0-44.47-13.97-81.56-41.94-111.27c-27.95-29.71-63.84-44.57-107.67-44.57
					c-40.53,0-74.11,14.27-100.81,42.7c-0.28,0.3-0.58,0.57-0.86,0.87c-0.21,0.23-0.41,0.47-0.62,0.69
					c-0.19,0.2-0.38,0.39-0.56,0.59l0.01,0.02c-26.38,28.66-39.58,64.26-39.58,106.84c0,43.6,13.77,79.75,41.31,108.43
					c27.54,28.68,64.07,43.03,109.6,43.03c40.36,0,73.2-11.96,98.59-35.8c7.58-7.23,15.25-16.2,21.48-25.58l-59.08-32.23
					c-13.91,17.6-33.82,26.49-59.88,26.49c-42.23,0-68.11-17.98-77.66-53.93h215.87C1685.51,937.32,1686.16,928.59,1686.16,919.5z
					 M1463.53,889c4.24-19.27,12.91-34.23,26.01-44.87c13.1-10.63,29.68-15.96,49.72-15.96c16.96,0,32.09,5.02,45.38,15.05
					c13.3,10.04,22.06,25.29,26.31,45.77H1463.53z"/>
			</g>
		</g>
	</g>
</g>
<g>
</g>
<g>
</g>
<g>
</g>
<g>
</g>
<g>
</g>
<g>
</g>
</svg>
